<?xml version="1.0" encoding="UTF-8" standalone="no"?>
<svg
   xmlns:dc="http://purl.org/dc/elements/1.1/"
   xmlns:cc="http://creativecommons.org/ns#"
   xmlns:rdf="http://www.w3.org/1999/02/22-rdf-syntax-ns#"
   xmlns:svg="http://www.w3.org/2000/svg"
   xmlns="http://www.w3.org/2000/svg"
   xmlns:sodipodi="http://sodipodi.sourceforge.net/DTD/sodipodi-0.dtd"
   xmlns:inkscape="http://www.inkscape.org/namespaces/inkscape"
   viewBox="0 0 420.29596 226.12526"
   enable-background="new 0 0 564 245"
   id="svg4320"
   version="1.1"
   inkscape:version="0.91 r"
   sodipodi:docname="hybrid_release_process.svg"
   width="420.29596"
   height="226.12526">
  <metadata
     id="metadata4464">
    <rdf:RDF>
      <cc:Work
         rdf:about="">
        <dc:format>image/svg+xml</dc:format>
        <dc:type
           rdf:resource="http://purl.org/dc/dcmitype/StillImage" />
        <dc:title></dc:title>
      </cc:Work>
    </rdf:RDF>
  </metadata>
  <defs
     id="defs4462" />
  <sodipodi:namedview
     pagecolor="#ffffff"
     bordercolor="#666666"
     borderopacity="1"
     objecttolerance="10"
     gridtolerance="10"
     guidetolerance="10"
     inkscape:pageopacity="0"
     inkscape:pageshadow="2"
     inkscape:window-width="1680"
     inkscape:window-height="991"
     id="namedview4460"
     showgrid="false"
     inkscape:zoom="2.106383"
     inkscape:cx="296.93232"
     inkscape:cy="103.13533"
     inkscape:window-x="0"
     inkscape:window-y="0"
     inkscape:window-maximized="1"
     inkscape:current-layer="svg4320"
     fit-margin-top="30"
     fit-margin-left="10"
     fit-margin-right="10"
     fit-margin-bottom="10" />
  <g
     id="g4322"
     transform="translate(-78.355556,-18.974747)"
     style="fill:#989898">
    <path
       d="m 273.4,234.9 -1.8,0 0,-7 -2.6,0 0,-1.5 6.9,0 0,1.5 -2.6,0 0,7 z"
       id="path4324"
       inkscape:connector-curvature="0" />
    <path
       d="m 278.5,227.9 -1.7,0 0,-1.5 1.7,0 0,1.5 m 0,0.8 0,6.3 -1.7,0 0,-6.3 1.7,0"
       id="path4326"
       inkscape:connector-curvature="0" />
    <path
       d="m 289.1,234.9 -1.7,0 0,-3.8 c 0,-0.9 -0.4,-1.2 -0.9,-1.2 -0.8,0 -1.1,0.5 -1.1,1.3 l 0,3.8 -1.7,0 0,-3.8 c 0,-0.5 0,-1.3 -1,-1.3 -0.8,0 -1,0.5 -1,1.2 l 0,3.8 -1.7,0 0,-6.3 1.6,0 0,0.9 c 0.2,-0.4 0.7,-1.1 1.8,-1.1 0.9,0 1.3,0.3 1.7,1 0.2,-0.3 0.7,-1 1.7,-1 1.2,0 2.2,0.7 2.2,2.1 l 0,4.4 z"
       id="path4328"
       inkscape:connector-curvature="0" />
    <path
       d="m 296,233.1 c -0.4,1.5 -1.7,2 -2.8,2 -1.8,0 -3.1,-0.9 -3.1,-3.4 0,-0.8 0.3,-3.2 3,-3.2 1.2,0 3,0.6 3,3.5 l 0,0.3 -4.3,0 c 0,0.5 0.1,1.5 1.5,1.5 0.5,0 0.9,-0.2 1.1,-0.7 l 1.6,0 m -1.6,-1.9 c -0.1,-1 -0.7,-1.3 -1.3,-1.3 -0.8,0 -1.2,0.5 -1.3,1.3 l 2.6,0"
       id="path4330"
       inkscape:connector-curvature="0" />
  </g>
  <path
     d="m 410.12307,193.7 -2.38317,-3.3 c -0.21665,-0.3 -0.50552,-0.3 -0.72217,0 -0.21665,0.3 -0.21665,0.7 0,1 l 1.51656,2.1 -396.83429,0 0,1.4 396.90651,0 -1.51656,2.1 c -0.21666,0.3 -0.21666,0.7 0,1 0.0722,0.1 0.21665,0.2 0.36108,0.2 0.14444,0 0.28887,-0.1 0.36109,-0.2 l 2.38317,-3.3 c 0.14444,-0.3 0.14444,-0.7 -0.0722,-1"
     id="path4332"
     inkscape:connector-curvature="0"
     style="fill:#cdcccc" />
  <g
     id="g4496"
     transform="translate(5.2000003,-18.5)">
    <path
       id="path4334"
       d="m 191,190 c 0,2.3 -1.9,4.2 -4.2,4.2 l -177.3,0 c -2.3,0 -4.2,-1.9 -4.2,-4.2 l 0,-19.5 c 0,-2.3 1.9,-4.2 4.2,-4.2 l 177.2,0 c 2.3,0 4.2,1.9 4.2,4.2 l 0,19.5 z"
       stroke-miterlimit="10"
       inkscape:connector-curvature="0"
       style="fill:none;stroke:#654a83;stroke-miterlimit:10" />
    <g
       id="g4336"
       style="fill:#654a83">
      <path
         id="path4338"
         d="m 67,176.5 3.7,0 c 2.9,0 3.4,2.4 3.4,4 0,1.8 -0.7,4.4 -3.5,4.4 l -3.6,0 0,-8.4 m 1.7,7 1.7,0 c 1.4,0 1.9,-1.5 1.9,-2.8 0,-2.5 -1.2,-2.7 -1.9,-2.7 l -1.7,0 0,5.5"
         inkscape:connector-curvature="0" />
      <path
         id="path4340"
         d="m 76.6,185 -1.9,0 3,-8.5 2,0 3,8.5 -1.9,0 -0.5,-1.7 -3.1,0 -0.6,1.7 m 1.1,-3.2 2.2,0 -1.1,-3.4 -1.1,3.4"
         inkscape:connector-curvature="0" />
      <path
         id="path4342"
         d="m 86.8,185 -1.8,0 0,-7 -2.6,0 0,-1.5 6.9,0 0,1.5 -2.6,0 0,7 z"
         inkscape:connector-curvature="0" />
      <path
         id="path4344"
         d="m 90.9,185 -1.9,0 3,-8.5 2,0 3,8.5 -1.9,0 -0.5,-1.7 -3.1,0 -0.6,1.7 m 1.1,-3.2 2.2,0 -1.1,-3.4 -1.1,3.4"
         inkscape:connector-curvature="0" />
      <path
         id="path4346"
         d="m 98.6,176.5 4.1,0 c 2.1,0 2.6,1.3 2.6,2.2 0,1.2 -0.7,1.6 -1,1.7 1,0.4 1.3,1.2 1.3,2.1 0,0.7 -0.3,1.3 -0.7,1.7 -0.5,0.5 -0.9,0.8 -2.7,0.8 l -3.6,0 0,-8.5 m 1.7,3.3 2.1,0 c 0.7,0 1.3,-0.3 1.3,-0.9 0,-0.7 -0.5,-0.9 -1.3,-0.9 l -2,0 0,1.8 z m 0,3.7 2.2,0 c 0.9,0 1.4,-0.4 1.4,-1.2 0,-0.7 -0.6,-1 -1.3,-1 l -2.3,0 0,2.2"
         inkscape:connector-curvature="0" />
      <path
         id="path4348"
         d="m 108.3,185 -1.9,0 3,-8.5 2,0 3,8.5 -1.9,0 -0.5,-1.7 -3.1,0 -0.6,1.7 m 1.1,-3.2 2.2,0 -1.1,-3.4 -1.1,3.4"
         inkscape:connector-curvature="0" />
      <path
         id="path4350"
         d="m 117,182.4 c 0,0.5 0.2,1.4 1.8,1.4 0.8,0 1.8,-0.2 1.8,-1.1 0,-0.7 -0.6,-0.8 -1.5,-1.1 l -0.9,-0.2 c -1.4,-0.3 -2.7,-0.6 -2.7,-2.5 0,-0.9 0.5,-2.6 3.3,-2.6 2.6,0 3.3,1.7 3.3,2.7 l -1.7,0 c 0,-0.4 -0.2,-1.3 -1.7,-1.3 -0.7,0 -1.5,0.2 -1.5,1 0,0.7 0.5,0.8 0.9,0.9 l 2.1,0.5 c 1.2,0.3 2.2,0.8 2.2,2.3 0,2.6 -2.6,2.8 -3.3,2.8 -3.1,0 -3.6,-1.8 -3.6,-2.8 l 1.5,0"
         inkscape:connector-curvature="0" />
      <path
         id="path4352"
         d="m 130.2,178 -4.5,0 0,1.8 4.1,0 0,1.5 -4.1,0 0,2.2 4.7,0 0,1.5 -6.4,0 0,-8.5 6.2,0 0,1.5"
         inkscape:connector-curvature="0" />
    </g>
  </g>
  <path
     style="fill:none;stroke:#3773b1;stroke-width:0.97197455;stroke-miterlimit:10"
     inkscape:connector-curvature="0"
     stroke-miterlimit="10"
     d="m 195.29482,132.41229 c 0,2.30094 -1.79426,4.20172 -3.96626,4.20172 l -176.876313,0 c -2.171999,0 -3.96626,-1.90078 -3.96626,-4.20172 l 0,-19.50799 c 0,-2.30094 1.794261,-4.20172 3.96626,-4.20172 l 176.781883,0 c 2.172,0 3.96626,1.90078 3.96626,4.20172 l 0,19.50799 z"
     id="path4354" />
  <g
     style="fill:#3773b1"
     id="g4356"
     transform="translate(-111.3096,-18.5)">
    <path
       inkscape:connector-curvature="0"
       d="m 182.9,137.4 4.1,0 c 2.1,0 2.6,1.3 2.6,2.2 0,1.2 -0.7,1.6 -1,1.7 1,0.4 1.3,1.2 1.3,2.1 0,0.7 -0.3,1.3 -0.7,1.7 -0.5,0.5 -0.9,0.8 -2.7,0.8 l -3.6,0 0,-8.5 m 1.7,3.3 2.1,0 c 0.7,0 1.3,-0.3 1.3,-0.9 0,-0.7 -0.5,-0.9 -1.3,-0.9 l -2,0 0,1.8 z m 0,3.7 2.2,0 c 0.9,0 1.4,-0.4 1.4,-1.2 0,-0.7 -0.6,-1 -1.3,-1 l -2.3,0 0,2.2"
       id="path4358" />
    <path
       inkscape:connector-curvature="0"
       d="m 192.7,145.8 -1.9,0 3,-8.5 2,0 3,8.5 -1.9,0 -0.5,-1.7 -3.1,0 -0.6,1.7 m 1,-3.2 2.2,0 -1.1,-3.4 -1.1,3.4"
       id="path4360" />
    <path
       inkscape:connector-curvature="0"
       d="m 205.3,140.1 c -0.1,-0.5 -0.4,-1.5 -1.9,-1.5 -0.9,0 -2.1,0.6 -2.1,3 0,1.5 0.6,2.9 2.1,2.9 1,0 1.7,-0.6 1.9,-1.6 l 1.8,0 c -0.4,1.8 -1.6,3.1 -3.7,3.1 -2.3,0 -3.9,-1.5 -3.9,-4.5 0,-3 1.7,-4.5 3.9,-4.5 2.5,0 3.6,1.7 3.7,3 l -1.8,0 z"
       id="path4362" />
    <path
       inkscape:connector-curvature="0"
       d="m 210.6,145.8 -1.8,0 0,-8.5 1.8,0 0,3.4 3.2,-3.4 2.3,0 -3.5,3.5 3.7,5 -2.3,0 -2.6,-3.7 -0.8,0.9 0,2.8"
       id="path4364" />
    <path
       inkscape:connector-curvature="0"
       d="m 227.5,138.9 -4.5,0 0,1.8 4.1,0 0,1.5 -4.1,0 0,2.2 4.7,0 0,1.5 -6.4,0 0,-8.5 6.2,0 0,1.5"
       id="path4366" />
    <path
       inkscape:connector-curvature="0"
       d="m 234.6,137.4 1.7,0 0,8.5 -1.8,0 -3.5,-6 0,6 -1.7,0 0,-8.5 1.9,0 3.4,5.9 0,-5.9"
       id="path4368" />
    <path
       inkscape:connector-curvature="0"
       d="m 238.4,137.4 3.7,0 c 2.9,0 3.4,2.4 3.4,4 0,1.8 -0.7,4.4 -3.5,4.4 l -3.7,0 0,-8.4 z m 1.7,7 1.7,0 c 1.4,0 1.9,-1.5 1.9,-2.8 0,-2.5 -1.2,-2.7 -1.9,-2.7 l -1.7,0 0,5.5"
       id="path4370" />
  </g>
  <path
     style="fill:none;stroke:#59aee0;stroke-width:1.16796231;stroke-miterlimit:10"
     inkscape:connector-curvature="0"
     stroke-miterlimit="10"
     d="m 196.92991,91.82721 c 0,2.28478 -2.60912,4.17222 -5.76753,4.17222 l -174.810876,0 c -3.158405,0 -5.767523,-1.88744 -5.767523,-4.17222 l 0,-19.371012 c 0,-2.284785 2.609118,-4.172217 5.767523,-4.172217 l 174.673566,0 c 3.1584,0 5.76752,1.887432 5.76752,4.172217 l 0,19.371012 z"
     id="path4372" />
  <g
     style="fill:#59aee0"
     id="g4374"
     transform="translate(-225.04305,-18.5)">
    <path
       inkscape:connector-curvature="0"
       d="m 295.6,105.4 -1.8,0 0,-8.5 6,0 0,1.5 -4.3,0 0,1.9 3.7,0 0,1.5 -3.7,0 0,3.6 z"
       id="path4376" />
    <path
       inkscape:connector-curvature="0"
       d="m 301.4,96.9 4.3,0 c 2.3,0 2.7,1.7 2.7,2.4 0,0.9 -0.5,1.7 -1.3,2 0.7,0.3 1.1,0.6 1.1,2.1 0,1.2 0,1.5 0.4,1.7 l 0,0.2 -2,0 c -0.1,-0.4 -0.2,-0.8 -0.2,-1.7 0,-1.2 -0.1,-1.6 -1.4,-1.6 l -1.8,0 0,3.3 -1.7,0 0,-8.4 z m 3.8,3.7 c 0.9,0 1.4,-0.3 1.4,-1.2 0,-0.4 -0.2,-1.1 -1.2,-1.1 l -2.2,0 0,2.3 2,0"
       id="path4378" />
    <path
       inkscape:connector-curvature="0"
       d="m 313.7,96.7 c 1.1,0 4.1,0.5 4.1,4.5 0,4 -3,4.5 -4.1,4.5 -1.1,0 -4.1,-0.5 -4.1,-4.5 0,-4 3,-4.5 4.1,-4.5 m 0,7.4 c 1,0 2.3,-0.6 2.3,-3 0,-2.4 -1.3,-3 -2.3,-3 -1,0 -2.3,0.6 -2.3,3 0,2.4 1.3,3 2.3,3"
       id="path4380" />
    <path
       inkscape:connector-curvature="0"
       d="m 324.7,96.9 1.7,0 0,8.5 -1.8,0 -3.5,-6 0,6 -1.7,0 0,-8.5 1.9,0 3.4,5.9 0,-5.9"
       id="path4382" />
    <path
       inkscape:connector-curvature="0"
       d="m 332,105.4 -1.8,0 0,-7 -2.6,0 0,-1.5 6.9,0 0,1.5 -2.5,0 0,7"
       id="path4384" />
    <path
       inkscape:connector-curvature="0"
       d="m 345.9,98.4 -4.5,0 0,1.8 4.1,0 0,1.5 -4.1,0 0,2.2 4.7,0 0,1.5 -6.4,0 0,-8.5 6.2,0 0,1.5"
       id="path4386" />
    <path
       inkscape:connector-curvature="0"
       d="m 353,96.9 1.7,0 0,8.5 -1.8,0 -3.5,-6 0,6 -1.7,0 0,-8.5 1.9,0 3.4,5.9 0,-5.9"
       id="path4388" />
    <path
       inkscape:connector-curvature="0"
       d="m 356.7,96.9 3.7,0 c 2.9,0 3.4,2.4 3.4,4 0,1.8 -0.7,4.4 -3.5,4.4 l -3.7,0 0,-8.4 z m 1.8,7 1.7,0 c 1.4,0 1.9,-1.5 1.9,-2.8 0,-2.5 -1.2,-2.7 -1.9,-2.7 l -1.7,0 0,5.5"
       id="path4390" />
  </g>
  <g
     id="g4520"
     transform="translate(-158.8,-18.5)">
    <path
       id="path4392"
       d="m 558.7,72.7 c 0,2.3 -1.9,4.2 -4.2,4.2 l -174.7,0 c -2.3,0 -4.2,-1.9 -4.2,-4.2 l 0,-19.5 c 0,-2.3 1.9,-4.2 4.2,-4.2 l 174.6,0 c 2.3,0 4.2,1.9 4.2,4.2 l 0,19.5 z"
       stroke-miterlimit="10"
       inkscape:connector-curvature="0"
       style="fill:none;stroke:#f79332;stroke-miterlimit:10" />
    <g
       id="g4394"
       style="fill:#f79332">
      <path
         id="path4396"
         d="m 445.5,67.7 -1.8,0 0,-7 -2.6,0 0,-1.5 6.9,0 0,1.5 -2.6,0 0,7 z"
         inkscape:connector-curvature="0" />
      <path
         id="path4398"
         d="m 455.7,60.7 -4.5,0 0,1.8 4.1,0 0,1.5 -4.1,0 0,2.2 4.7,0 0,1.5 -6.4,0 0,-8.5 6.2,0 0,1.5"
         inkscape:connector-curvature="0" />
      <path
         id="path4400"
         d="m 458.9,65.1 c 0,0.5 0.2,1.4 1.8,1.4 0.8,0 1.8,-0.2 1.8,-1.1 0,-0.7 -0.6,-0.8 -1.5,-1.1 l -0.9,-0.2 c -1.4,-0.3 -2.7,-0.6 -2.7,-2.5 0,-0.9 0.5,-2.6 3.3,-2.6 2.6,0 3.3,1.7 3.3,2.7 l -1.7,0 c 0,-0.4 -0.2,-1.3 -1.7,-1.3 -0.7,0 -1.5,0.2 -1.5,1 0,0.7 0.5,0.8 0.9,0.9 l 2.1,0.5 c 1.2,0.3 2.2,0.8 2.2,2.3 0,2.6 -2.6,2.8 -3.3,2.8 -3.1,0 -3.6,-1.8 -3.6,-2.8 l 1.5,0"
         inkscape:connector-curvature="0" />
      <path
         id="path4402"
         d="m 469.3,67.7 -1.8,0 0,-7 -2.6,0 0,-1.5 6.9,0 0,1.5 -2.6,0 0,7 z"
         inkscape:connector-curvature="0" />
      <path
         id="path4404"
         d="m 474.9,67.7 -1.8,0 0,-8.5 1.8,0 0,8.5"
         inkscape:connector-curvature="0" />
      <path
         id="path4406"
         d="m 482,59.2 1.7,0 0,8.5 -1.8,0 -3.5,-6 0,6 -1.7,0 0,-8.5 1.9,0 3.4,5.9 0,-5.9"
         inkscape:connector-curvature="0" />
      <path
         id="path4408"
         d="m 489.7,63.1 3.5,0 0,4.6 -1.2,0 -0.2,-1.1 c -0.4,0.5 -1.1,1.3 -2.6,1.3 -2,0 -3.9,-1.5 -3.9,-4.4 0,-2.3 1.3,-4.5 4.1,-4.5 2.6,0 3.6,1.7 3.7,2.9 l -1.8,0 c 0,-0.3 -0.6,-1.4 -1.9,-1.4 -1.3,0 -2.4,0.9 -2.4,3 0,2.3 1.3,2.9 2.5,2.9 0.4,0 1.7,-0.2 2.1,-1.9 l -2,0 0,-1.4 z"
         inkscape:connector-curvature="0" />
    </g>
  </g>
</svg>
